<?xml version="1.0" standalone="no"?><!DOCTYPE svg PUBLIC "-//W3C//DTD SVG 1.1//EN" "http://www.w3.org/Graphics/SVG/1.1/DTD/svg11.dtd"><svg t="1682044978404" class="icon" viewBox="0 0 1024 1024" version="1.1" xmlns="http://www.w3.org/2000/svg" p-id="3773" xmlns:xlink="http://www.w3.org/1999/xlink" width="200" height="200"><path d="M902.4 740.266667l-192-117.333334c-10.666667-6.4-21.333333-6.4-32 0s-17.066667 17.066667-17.066667 27.733334v234.666666c0 10.666667 6.4 21.333333 17.066667 27.733334 2.133333 2.133333 10.666667 4.266667 14.933333 4.266666 2.133333 0 6.4 0 8.533334-2.133333 0 0 4.266667-2.133333 8.533333-2.133333l192-117.333334c8.533333-6.4 14.933333-17.066667 14.933333-27.733333 0-8.533333-6.4-19.2-14.933333-27.733333z m-12.8 38.4l-189.866667 115.2c-2.133333 0-4.266667 2.133333-4.266666 2.133333h-2.133334s-4.266667 0-4.266666-2.133333c-4.266667-2.133333-6.4-6.4-6.4-8.533334v-234.666666c0-2.133333 2.133333-6.4 6.4-8.533334 2.133333-2.133333 4.266667-2.133333 4.266666-2.133333 2.133333 0 2.133333 0 4.266667 2.133333l189.866667 117.333334c4.266667 2.133333 6.4 8.533333 6.4 10.666666 2.133333 2.133333 0 6.4-4.266667 8.533334z m6.4-262.4V194.133333C896 145.066667 855.466667 106.666667 806.4 106.666667H174.933333C125.866667 106.666667 85.333333 145.066667 85.333333 194.133333v629.333334C85.333333 874.666667 125.866667 917.333333 174.933333 917.333333h320c8.533333 25.6 32 42.666667 59.733334 42.666667 36.266667 0 64-27.733333 64-64s-27.733333-64-64-64c-27.733333 0-51.2 17.066667-59.733334 42.666667h-320C149.333333 874.666667 128 851.2 128 823.466667V194.133333C128 168.533333 149.333333 149.333333 174.933333 149.333333h629.333334C832 149.333333 853.333333 168.533333 853.333333 194.133333v322.133334c-25.6 8.533333-42.666667 32-42.666666 59.733333 0 36.266667 27.733333 64 64 64s64-27.733333 64-64c0-27.733333-17.066667-51.2-42.666667-59.733333zM554.666667 853.333333c23.466667 0 42.666667 19.2 42.666666 42.666667s-19.2 42.666667-42.666666 42.666667-42.666667-19.2-42.666667-42.666667 19.2-42.666667 42.666667-42.666667z m320-234.666666c-23.466667 0-42.666667-19.2-42.666667-42.666667s19.2-42.666667 42.666667-42.666667 42.666667 19.2 42.666666 42.666667-19.2 42.666667-42.666666 42.666667z m-149.333334-181.333334c0-6.4-4.266667-10.666667-10.666666-10.666666h-362.666667c-6.4 0-10.666667 4.266667-10.666667 10.666666s4.266667 10.666667 10.666667 10.666667h362.666667c6.4 0 10.666667-4.266667 10.666666-10.666667zM352 320h362.666667c6.4 0 10.666667-4.266667 10.666666-10.666667s-4.266667-10.666667-10.666666-10.666666h-362.666667c-6.4 0-10.666667 4.266667-10.666667 10.666666s4.266667 10.666667 10.666667 10.666667z m0 234.666667c-6.4 0-10.666667 4.266667-10.666667 10.666666s4.266667 10.666667 10.666667 10.666667h149.333333c6.4 0 10.666667-4.266667 10.666667-10.666667s-4.266667-10.666667-10.666667-10.666666h-149.333333z m-64-256h-21.333333c-6.4 0-10.666667 4.266667-10.666667 10.666666s4.266667 10.666667 10.666667 10.666667h21.333333c6.4 0 10.666667-4.266667 10.666667-10.666667s-4.266667-10.666667-10.666667-10.666666z m0 256h-21.333333c-6.4 0-10.666667 4.266667-10.666667 10.666666s4.266667 10.666667 10.666667 10.666667h21.333333c6.4 0 10.666667-4.266667 10.666667-10.666667s-4.266667-10.666667-10.666667-10.666666z m0-128h-21.333333c-6.4 0-10.666667 4.266667-10.666667 10.666666s4.266667 10.666667 10.666667 10.666667h21.333333c6.4 0 10.666667-4.266667 10.666667-10.666667s-4.266667-10.666667-10.666667-10.666666z" p-id="3774" fill="#1296db"></path></svg>